<?xml version="1.0" encoding="UTF-8"?>
<svg id="Capa_1" data-name="Capa 1" xmlns="http://www.w3.org/2000/svg" viewBox="0 0 1366 768">
  <defs>
    <style>
      .cls-1 {
        stroke-dasharray: 12.39 12.39;
      }

      .cls-1, .cls-2, .cls-3, .cls-4, .cls-5, .cls-6, .cls-7, .cls-8, .cls-9 {
        fill: none;
        stroke: #fff;
        stroke-miterlimit: 10;
      }

      .cls-1, .cls-7 {
        stroke-width: .61px;
      }

      .cls-2 {
        stroke-dasharray: 12.22 12.22;
      }

      .cls-2, .cls-9 {
        stroke-width: .58px;
      }

      .cls-3 {
        stroke-width: .76px;
      }

      .cls-10 {
        fill: #fff;
      }

      .cls-4, .cls-8 {
        stroke-width: .75px;
      }

      .cls-5, .cls-6 {
        stroke-width: .45px;
      }

      .cls-6 {
        stroke-dasharray: 12.14 12.14;
      }

      .cls-8 {
        opacity: .69;
      }

      .cls-11 {
        opacity: .59;
      }
    </style>
  </defs>
  <g class="cls-11">
    <line class="cls-8" x1="54.72" y1=".3" x2="54.72" y2="766.26"/>
    <line class="cls-4" x1="109.53" y1=".3" x2="109.53" y2="766.26"/>
    <line class="cls-4" x1="164.34" y1=".3" x2="164.34" y2="766.26"/>
    <line class="cls-4" x1="219.15" y1=".3" x2="219.15" y2="766.26"/>
    <line class="cls-4" x1="273.96" y1=".3" x2="273.96" y2="766.26"/>
    <line class="cls-4" x1="328.77" y1=".3" x2="328.77" y2="766.26"/>
    <line class="cls-4" x1="383.57" y1=".3" x2="383.57" y2="766.26"/>
    <line class="cls-4" x1="438.38" y1=".3" x2="438.38" y2="766.26"/>
    <line class="cls-4" x1="493.19" y1=".3" x2="493.19" y2="766.26"/>
    <line class="cls-4" x1="548" y1=".3" x2="548" y2="766.26"/>
    <line class="cls-4" x1="602.81" y1=".3" x2="602.81" y2="766.26"/>
    <line class="cls-4" x1="657.62" y1=".3" x2="657.62" y2="766.26"/>
    <line class="cls-4" x1="712.43" y1=".3" x2="712.43" y2="766.26"/>
    <line class="cls-4" x1="767.23" y1=".3" x2="767.23" y2="766.26"/>
    <line class="cls-4" x1="822.04" y1=".3" x2="822.04" y2="766.26"/>
    <line class="cls-4" x1="876.85" y1=".3" x2="876.85" y2="766.26"/>
    <line class="cls-4" x1="931.66" y1=".3" x2="931.66" y2="766.26"/>
    <line class="cls-4" x1="986.47" y1=".3" x2="986.47" y2="766.26"/>
    <line class="cls-4" x1="1041.28" y1=".3" x2="1041.28" y2="766.26"/>
    <line class="cls-4" x1="1096.09" y1=".3" x2="1096.09" y2="766.26"/>
    <line class="cls-4" x1="1150.89" y1=".3" x2="1150.89" y2="766.26"/>
    <line class="cls-4" x1="1205.7" y1=".3" x2="1205.7" y2="766.26"/>
    <line class="cls-4" x1="1260.51" y1=".3" x2="1260.51" y2="766.26"/>
    <line class="cls-8" x1="1315.32" y1=".3" x2="1315.32" y2="766.26"/>
    <line class="cls-4" x1=".34" y1="53.77" x2="1364.26" y2="53.77"/>
    <line class="cls-4" x1=".34" y1="108.74" x2="1364.26" y2="108.74"/>
    <line class="cls-4" x1=".34" y1="163.72" x2="1364.26" y2="163.72"/>
    <line class="cls-4" x1=".34" y1="218.7" x2="1364.26" y2="218.7"/>
    <line class="cls-4" x1=".34" y1="273.68" x2="1364.26" y2="273.68"/>
    <line class="cls-4" x1=".34" y1="328.66" x2="1364.26" y2="328.66"/>
    <line class="cls-4" x1=".34" y1="383.64" x2="1364.26" y2="383.64"/>
    <line class="cls-4" x1=".34" y1="438.62" x2="1364.26" y2="438.62"/>
    <line class="cls-4" x1=".34" y1="493.6" x2="1364.26" y2="493.6"/>
    <line class="cls-4" x1=".34" y1="548.57" x2="1364.26" y2="548.57"/>
    <line class="cls-4" x1=".34" y1="603.55" x2="1364.26" y2="603.55"/>
    <line class="cls-4" x1=".34" y1="658.53" x2="1364.26" y2="658.53"/>
    <line class="cls-4" x1=".34" y1="713.51" x2="1364.26" y2="713.51"/>
  </g>
  <g class="cls-11">
    <rect class="cls-10" x="164.78" y="49.57" width="8.63" height="3.74"/>
    <rect class="cls-10" x="384.03" y="49.57" width="6.76" height="3.74"/>
    <rect class="cls-10" x="658.07" y="49.57" width="6.76" height="3.74"/>
    <rect class="cls-10" x="932.1" y="49.57" width="6.76" height="3.74"/>
    <rect class="cls-10" x="1206.13" y="49.59" width="6.76" height="3.74"/>
    <rect class="cls-10" x="48.98" y="48.03" width="5.28" height="5.28"/>
    <rect class="cls-10" x="274.38" y="48.04" width="5.28" height="5.28"/>
    <rect class="cls-10" x="493.62" y="48.04" width="5.28" height="5.28"/>
    <rect class="cls-10" x="767.68" y="48.05" width="5.28" height="5.28"/>
    <rect class="cls-10" x="1041.69" y="48.03" width="5.28" height="5.28"/>
    <rect class="cls-10" x="1315.39" y="48.03" width="5.28" height="5.28"/>
  </g>
  <g class="cls-11">
    <rect class="cls-10" x="164.78" y="159.21" width="8.63" height="3.74"/>
    <rect class="cls-10" x="384.03" y="159.21" width="6.76" height="3.74"/>
    <rect class="cls-10" x="658.07" y="159.21" width="6.76" height="3.74"/>
    <rect class="cls-10" x="932.1" y="159.21" width="6.76" height="3.74"/>
    <rect class="cls-10" x="1206.13" y="159.22" width="6.76" height="3.74"/>
    <rect class="cls-10" x="48.98" y="157.67" width="5.28" height="5.28"/>
    <rect class="cls-10" x="274.38" y="157.68" width="5.28" height="5.28"/>
    <rect class="cls-10" x="493.62" y="157.68" width="5.28" height="5.28"/>
    <rect class="cls-10" x="767.68" y="157.69" width="5.28" height="5.28"/>
    <rect class="cls-10" x="1041.69" y="157.66" width="5.28" height="5.28"/>
    <rect class="cls-10" x="1315.39" y="157.66" width="5.28" height="5.28"/>
  </g>
  <g class="cls-11">
    <rect class="cls-10" x="164.78" y="269.49" width="8.63" height="3.74"/>
    <rect class="cls-10" x="384.03" y="269.49" width="6.76" height="3.74"/>
    <rect class="cls-10" x="658.07" y="269.49" width="6.76" height="3.74"/>
    <rect class="cls-10" x="932.1" y="269.49" width="6.76" height="3.74"/>
    <rect class="cls-10" x="1206.13" y="269.5" width="6.76" height="3.74"/>
    <rect class="cls-10" x="48.98" y="267.94" width="5.28" height="5.28"/>
    <rect class="cls-10" x="274.38" y="267.95" width="5.28" height="5.28"/>
    <rect class="cls-10" x="493.62" y="267.95" width="5.28" height="5.28"/>
    <rect class="cls-10" x="767.68" y="267.96" width="5.28" height="5.28"/>
    <rect class="cls-10" x="1041.69" y="267.94" width="5.28" height="5.28"/>
    <rect class="cls-10" x="1315.39" y="267.94" width="5.28" height="5.28"/>
  </g>
  <g class="cls-11">
    <rect class="cls-10" x="164.78" y="379.44" width="8.63" height="3.74"/>
    <rect class="cls-10" x="384.03" y="379.44" width="6.76" height="3.74"/>
    <rect class="cls-10" x="658.07" y="379.44" width="6.76" height="3.74"/>
    <rect class="cls-10" x="932.1" y="379.44" width="6.76" height="3.74"/>
    <rect class="cls-10" x="1206.13" y="379.45" width="6.76" height="3.74"/>
    <rect class="cls-10" x="48.98" y="377.9" width="5.28" height="5.28"/>
    <rect class="cls-10" x="274.38" y="377.91" width="5.28" height="5.28"/>
    <rect class="cls-10" x="493.62" y="377.91" width="5.28" height="5.28"/>
    <rect class="cls-10" x="767.68" y="377.91" width="5.28" height="5.28"/>
    <rect class="cls-10" x="1041.69" y="377.89" width="5.28" height="5.28"/>
    <rect class="cls-10" x="1315.39" y="377.89" width="5.28" height="5.28"/>
  </g>
  <g class="cls-11">
    <rect class="cls-10" x="164.78" y="489.39" width="8.63" height="3.74"/>
    <rect class="cls-10" x="384.03" y="489.39" width="6.76" height="3.74"/>
    <rect class="cls-10" x="658.07" y="489.39" width="6.76" height="3.74"/>
    <rect class="cls-10" x="932.1" y="489.39" width="6.76" height="3.74"/>
    <rect class="cls-10" x="1206.13" y="489.4" width="6.76" height="3.74"/>
    <rect class="cls-10" x="48.98" y="487.85" width="5.28" height="5.28"/>
    <rect class="cls-10" x="274.38" y="487.86" width="5.28" height="5.28"/>
    <rect class="cls-10" x="493.62" y="487.86" width="5.28" height="5.28"/>
    <rect class="cls-10" x="767.68" y="487.87" width="5.28" height="5.28"/>
    <rect class="cls-10" x="1041.69" y="487.85" width="5.28" height="5.28"/>
    <rect class="cls-10" x="1315.39" y="487.85" width="5.28" height="5.28"/>
  </g>
  <g class="cls-11">
    <rect class="cls-10" x="164.78" y="599.34" width="8.63" height="3.74"/>
    <rect class="cls-10" x="384.03" y="599.34" width="6.76" height="3.74"/>
    <rect class="cls-10" x="658.07" y="599.34" width="6.76" height="3.74"/>
    <rect class="cls-10" x="932.1" y="599.34" width="6.76" height="3.74"/>
    <rect class="cls-10" x="1206.13" y="599.35" width="6.76" height="3.74"/>
    <rect class="cls-10" x="48.98" y="597.8" width="5.28" height="5.28"/>
    <rect class="cls-10" x="274.38" y="597.81" width="5.28" height="5.28"/>
    <rect class="cls-10" x="493.62" y="597.81" width="5.28" height="5.28"/>
    <rect class="cls-10" x="767.68" y="597.82" width="5.28" height="5.28"/>
    <rect class="cls-10" x="1041.69" y="597.8" width="5.28" height="5.28"/>
    <rect class="cls-10" x="1315.39" y="597.8" width="5.28" height="5.28"/>
  </g>
  <g class="cls-11">
    <rect class="cls-10" x="164.78" y="709.3" width="8.63" height="3.74"/>
    <rect class="cls-10" x="384.03" y="709.3" width="6.76" height="3.74"/>
    <rect class="cls-10" x="658.07" y="709.3" width="6.76" height="3.74"/>
    <rect class="cls-10" x="932.1" y="709.3" width="6.76" height="3.74"/>
    <rect class="cls-10" x="1206.13" y="709.31" width="6.76" height="3.74"/>
    <rect class="cls-10" x="48.98" y="707.75" width="5.28" height="5.28"/>
    <rect class="cls-10" x="274.38" y="707.76" width="5.28" height="5.28"/>
    <rect class="cls-10" x="493.62" y="707.76" width="5.28" height="5.28"/>
    <rect class="cls-10" x="767.68" y="707.77" width="5.28" height="5.28"/>
    <rect class="cls-10" x="1041.69" y="707.75" width="5.28" height="5.28"/>
    <rect class="cls-10" x="1315.39" y="707.75" width="5.28" height="5.28"/>
  </g>
  <g class="cls-11">
    <rect class="cls-10" x="219.58" y="103.06" width="5.28" height="5.28"/>
    <rect class="cls-10" x="438.66" y="103.06" width="5.28" height="5.28"/>
    <rect class="cls-10" x="822.46" y="103.02" width="5.28" height="5.28"/>
    <rect class="cls-10" x="1096.53" y="103.04" width="5.28" height="5.28"/>
    <rect class="cls-10" x="110" y="104.61" width="8.63" height="3.74"/>
    <rect class="cls-10" x="329.17" y="104.57" width="8.63" height="3.74"/>
    <rect class="cls-10" x="548.41" y="104.57" width="8.63" height="3.74"/>
    <rect class="cls-10" x="712.7" y="104.57" width="8.63" height="3.74"/>
    <rect class="cls-10" x="986.9" y="104.56" width="8.63" height="3.74"/>
    <rect class="cls-10" x="1260.94" y="104.58" width="8.63" height="3.74"/>
  </g>
  <g class="cls-11">
    <rect class="cls-10" x="219.6" y="212.98" width="5.28" height="5.28"/>
    <rect class="cls-10" x="438.67" y="212.98" width="5.28" height="5.28"/>
    <rect class="cls-10" x="822.48" y="212.93" width="5.28" height="5.28"/>
    <rect class="cls-10" x="1096.54" y="212.95" width="5.28" height="5.28"/>
    <rect class="cls-10" x="110.02" y="214.53" width="8.63" height="3.74"/>
    <rect class="cls-10" x="329.19" y="214.49" width="8.63" height="3.74"/>
    <rect class="cls-10" x="548.43" y="214.49" width="8.63" height="3.74"/>
    <rect class="cls-10" x="712.72" y="214.49" width="8.63" height="3.74"/>
    <rect class="cls-10" x="986.92" y="214.47" width="8.63" height="3.74"/>
    <rect class="cls-10" x="1260.95" y="214.49" width="8.63" height="3.74"/>
  </g>
  <g class="cls-11">
    <rect class="cls-10" x="219.6" y="322.92" width="5.28" height="5.28"/>
    <rect class="cls-10" x="438.67" y="322.92" width="5.28" height="5.28"/>
    <rect class="cls-10" x="822.48" y="322.88" width="5.28" height="5.28"/>
    <rect class="cls-10" x="1096.54" y="322.9" width="5.28" height="5.28"/>
    <rect class="cls-10" x="110.02" y="324.47" width="8.63" height="3.74"/>
    <rect class="cls-10" x="329.19" y="324.43" width="8.63" height="3.74"/>
    <rect class="cls-10" x="548.43" y="324.43" width="8.63" height="3.74"/>
    <rect class="cls-10" x="712.72" y="324.43" width="8.63" height="3.74"/>
    <rect class="cls-10" x="986.92" y="324.41" width="8.63" height="3.74"/>
    <rect class="cls-10" x="1260.95" y="324.43" width="8.63" height="3.74"/>
  </g>
  <g class="cls-11">
    <rect class="cls-10" x="219.6" y="432.86" width="5.28" height="5.28"/>
    <rect class="cls-10" x="438.67" y="432.86" width="5.28" height="5.28"/>
    <rect class="cls-10" x="822.48" y="432.82" width="5.28" height="5.28"/>
    <rect class="cls-10" x="1096.54" y="432.84" width="5.28" height="5.28"/>
    <rect class="cls-10" x="110.02" y="434.41" width="8.63" height="3.74"/>
    <rect class="cls-10" x="329.19" y="434.37" width="8.63" height="3.74"/>
    <rect class="cls-10" x="548.43" y="434.37" width="8.63" height="3.74"/>
    <rect class="cls-10" x="712.72" y="434.37" width="8.63" height="3.74"/>
    <rect class="cls-10" x="986.92" y="434.35" width="8.63" height="3.74"/>
    <rect class="cls-10" x="1260.95" y="434.38" width="8.63" height="3.74"/>
  </g>
  <g class="cls-11">
    <rect class="cls-10" x="219.6" y="542.8" width="5.28" height="5.28"/>
    <rect class="cls-10" x="438.67" y="542.8" width="5.28" height="5.28"/>
    <rect class="cls-10" x="822.48" y="542.76" width="5.28" height="5.28"/>
    <rect class="cls-10" x="1096.54" y="542.78" width="5.28" height="5.28"/>
    <rect class="cls-10" x="110.02" y="544.35" width="8.63" height="3.74"/>
    <rect class="cls-10" x="329.19" y="544.31" width="8.63" height="3.74"/>
    <rect class="cls-10" x="548.43" y="544.31" width="8.63" height="3.74"/>
    <rect class="cls-10" x="712.72" y="544.31" width="8.63" height="3.74"/>
    <rect class="cls-10" x="986.92" y="544.3" width="8.63" height="3.74"/>
    <rect class="cls-10" x="1260.95" y="544.32" width="8.63" height="3.74"/>
  </g>
  <g class="cls-11">
    <rect class="cls-10" x="219.6" y="652.74" width="5.28" height="5.28"/>
    <rect class="cls-10" x="438.67" y="652.74" width="5.28" height="5.28"/>
    <rect class="cls-10" x="822.48" y="652.7" width="5.28" height="5.28"/>
    <rect class="cls-10" x="1096.54" y="652.72" width="5.28" height="5.28"/>
    <rect class="cls-10" x="110.02" y="654.3" width="8.63" height="3.74"/>
    <rect class="cls-10" x="329.19" y="654.25" width="8.63" height="3.74"/>
    <rect class="cls-10" x="548.43" y="654.25" width="8.63" height="3.74"/>
    <rect class="cls-10" x="712.72" y="654.25" width="8.63" height="3.74"/>
    <rect class="cls-10" x="986.92" y="654.24" width="8.63" height="3.74"/>
    <rect class="cls-10" x="1260.95" y="654.26" width="8.63" height="3.74"/>
  </g>
  <g class="cls-11">
    <rect class="cls-10" x="219.6" y="762.73" width="5.28" height="5.28"/>
    <rect class="cls-10" x="438.67" y="762.73" width="5.28" height="5.28"/>
    <rect class="cls-10" x="822.48" y="762.68" width="5.28" height="5.28"/>
    <rect class="cls-10" x="1096.54" y="762.7" width="5.28" height="5.28"/>
    <rect class="cls-10" x="110.02" y="764.28" width="8.63" height="3.74"/>
    <rect class="cls-10" x="329.19" y="764.24" width="8.63" height="3.74"/>
    <rect class="cls-10" x="548.43" y="764.24" width="8.63" height="3.74"/>
    <rect class="cls-10" x="712.72" y="764.24" width="8.63" height="3.74"/>
    <rect class="cls-10" x="986.92" y="764.22" width="8.63" height="3.74"/>
    <rect class="cls-10" x="1260.95" y="764.24" width="8.63" height="3.74"/>
  </g>
  <g>
    <path class="cls-9" d="M547.57-1.38c0,2.01-.05,4.01-.16,6"/>
    <path class="cls-2" d="M546.11,16.76c-8.49,52.05-52.87,91.73-106.34,91.73s-101.25-42.79-107.16-97.78"/>
    <path class="cls-9" d="M332.12,4.62c-.1-1.99-.16-3.99-.16-6"/>
  </g>
  <g>
    <path class="cls-7" d="M1207.36,220.07c-2.02,0-4.02.11-5.99.31"/>
    <path class="cls-1" d="M1189.28,223.02c-21.85,7.36-37.56,27.71-37.56,51.65,0,26.07,18.62,47.87,43.53,53.3"/>
    <path class="cls-7" d="M1201.37,328.94c1.97.21,3.97.31,5.99.31"/>
  </g>
  <circle class="cls-3" cx="630.22" cy="686.11" r="26.56"/>
  <g>
    <path class="cls-5" d="M110.03,438.01c2.02,0,4.02-.12,5.99-.34"/>
    <path class="cls-6" d="M127.81,434.9c20.76-7.5,35.63-27.77,35.63-51.6,0-25.99-17.7-47.75-41.44-53.32"/>
    <path class="cls-5" d="M116.02,328.94c-1.97-.22-3.96-.34-5.99-.34"/>
  </g>
  <g>
    <path class="cls-5" d="M329.61,438.01c2.02,0,4.02-.12,5.99-.34"/>
    <path class="cls-6" d="M347.39,434.9c20.76-7.5,35.63-27.77,35.63-51.6,0-25.99-17.7-47.75-41.44-53.32"/>
    <path class="cls-5" d="M335.6,328.94c-1.97-.22-3.96-.34-5.99-.34"/>
  </g>
  <g>
    <path class="cls-7" d="M986.77,220.07c-2.02,0-4.02.11-5.99.31"/>
    <path class="cls-1" d="M968.68,223.02c-21.85,7.36-37.56,27.71-37.56,51.65,0,26.07,18.62,47.87,43.53,53.3"/>
    <path class="cls-7" d="M980.77,328.94c1.97.21,3.97.31,5.99.31"/>
  </g>
  <g>
    <path class="cls-5" d="M109.01,438.01c2.02,0,4.02-.12,5.99-.34"/>
    <path class="cls-6" d="M126.79,434.9c20.76-7.5,35.63-27.77,35.63-51.6,0-25.99-17.7-47.75-41.44-53.32"/>
    <path class="cls-5" d="M115,328.94c-1.97-.22-3.96-.34-5.99-.34"/>
  </g>
  <circle class="cls-4" cx="1327.09" cy="97.13" r="10.87"/>
  <circle class="cls-4" cx="1139.3" cy="97.13" r="10.87"/>
  <circle class="cls-4" cx="42.88" cy="426.9" r="10.87"/>
  <circle class="cls-4" cx="865.74" cy="426.9" r="10.87"/>
  <circle class="cls-4" cx="668.87" cy="97.17" r="10.87"/>
</svg>