<?xml version="1.0" encoding="UTF-8"?>
<svg id="Capa_1" data-name="Capa 1" xmlns="http://www.w3.org/2000/svg" viewBox="0 0 800 800">
  <defs>
    <style>
      .cls-1 {
        stroke-width: .78px;
      }

      .cls-1, .cls-2, .cls-3, .cls-4, .cls-5, .cls-6, .cls-7, .cls-8, .cls-9, .cls-10, .cls-11 {
        stroke-miterlimit: 10;
      }

      .cls-1, .cls-2, .cls-3, .cls-4, .cls-5, .cls-10 {
        stroke: #2f31f5;
      }

      .cls-1, .cls-2, .cls-3, .cls-5, .cls-10 {
        fill: #2f31f5;
      }

      .cls-2 {
        stroke-width: .32px;
      }

      .cls-3 {
        stroke-width: .53px;
      }

      .cls-4 {
        stroke-width: .58px;
      }

      .cls-4, .cls-6, .cls-7, .cls-8, .cls-9, .cls-11 {
        fill: none;
      }

      .cls-5 {
        stroke-width: .78px;
      }

      .cls-6 {
        stroke-dasharray: 10.6 7.71;
        stroke-width: 1px;
      }

      .cls-6, .cls-7, .cls-8, .cls-9, .cls-11 {
        stroke: #020202;
      }

      .cls-6, .cls-8 {
        opacity: .25;
      }

      .cls-7 {
        stroke-dasharray: 2.37 1.72;
      }

      .cls-7, .cls-11 {
        stroke-width: .3px;
      }

      .cls-8 {
        stroke-dasharray: 10.57 7.69;
      }

      .cls-9 {
        stroke-dasharray: 1.28 .93;
        stroke-width: .31px;
      }

      .cls-10 {
        stroke-width: .6px;
      }

      .cls-11 {
        stroke-dasharray: 4.71 3.42;
      }
    </style>
  </defs>
  <g>
    <line class="cls-8" x1="83.11" y1="2.85" x2="83.11" y2="803.53"/>
    <line class="cls-8" x1="161.23" y1="2.85" x2="161.23" y2="803.53"/>
    <line class="cls-8" x1="239.36" y1="2.85" x2="239.36" y2="803.53"/>
    <line class="cls-8" x1="317.49" y1="2.85" x2="317.49" y2="803.53"/>
    <line class="cls-8" x1="395.62" y1="2.85" x2="395.62" y2="803.53"/>
    <line class="cls-8" x1="473.74" y1="2.85" x2="473.74" y2="803.53"/>
    <line class="cls-8" x1="551.87" y1="2.85" x2="551.87" y2="803.53"/>
    <line class="cls-8" x1="630" y1="2.85" x2="630" y2="803.53"/>
    <line class="cls-8" x1="708.13" y1="2.85" x2="708.13" y2="803.53"/>
    <line class="cls-8" x1="786.26" y1="2.85" x2="786.26" y2="803.53"/>
    <line class="cls-8" x1="4.21" y1="75.62" x2="802.85" y2="75.62"/>
    <line class="cls-8" x1="4.21" y1="150.68" x2="802.85" y2="150.68"/>
    <line class="cls-8" x1="4.21" y1="225.74" x2="802.85" y2="225.74"/>
    <line class="cls-8" x1="4.21" y1="300.81" x2="802.85" y2="300.81"/>
    <line class="cls-8" x1="4.21" y1="375.87" x2="802.85" y2="375.87"/>
    <line class="cls-8" x1="4.21" y1="450.94" x2="802.85" y2="450.94"/>
    <line class="cls-8" x1="4.21" y1="526" x2="802.85" y2="526"/>
    <line class="cls-8" x1="4.21" y1="601.06" x2="802.85" y2="601.06"/>
    <line class="cls-8" x1="4.21" y1="676.13" x2="802.85" y2="676.13"/>
    <line class="cls-8" x1="4.21" y1="751.19" x2="802.85" y2="751.19"/>
    <line class="cls-6" x1="-1.13" y1="14.17" x2="801.26" y2="14.17"/>
  </g>
  <circle class="cls-11" cx="-55.18" cy="25.61" r="137.2"/>
  <circle class="cls-7" cx="384.61" cy="821.04" r="68.98"/>
  <ellipse class="cls-9" cx="747.13" cy="338.16" rx="37.74" ry="36.91"/>
  <g>
    <circle class="cls-4" cx="161.55" cy="150.64" r="6.15"/>
    <circle class="cls-2" cx="161.55" cy="150.64" r="2.97"/>
  </g>
  <g>
    <circle class="cls-4" cx="552.38" cy="526.17" r="6.15"/>
    <circle class="cls-2" cx="552.38" cy="526.17" r="2.97"/>
  </g>
  <g>
    <circle class="cls-4" cx="708.3" cy="75.11" r="6.15"/>
    <circle class="cls-2" cx="708.3" cy="75.11" r="2.97"/>
  </g>
  <g>
    <circle class="cls-4" cx="83.57" cy="751.11" r="6.15"/>
    <circle class="cls-2" cx="83.57" cy="751.11" r="2.97"/>
  </g>
  <g>
    <circle class="cls-4" cx="786.36" cy="751.26" r="6.15"/>
    <circle class="cls-2" cx="786.36" cy="751.26" r="2.97"/>
  </g>
  <rect class="cls-5" x=".47" y="300.5" width="6.81" height="75.37"/>
  <rect class="cls-1" x="743.8" y="560.33" width="6.81" height="76.24" transform="translate(148.758 1345.6516) rotate(-90)"/>
  <rect class="cls-3" x="175.17" y="-6.36" width="6.81" height="35.2" transform="translate(167.34 189.81) rotate(-90)"/>
  <rect class="cls-10" x="180.12" y="774.11" width="6.81" height="44.75" transform="translate(-612.96 980.02) rotate(-90)"/>
</svg>